<?xml version="1.0" encoding="UTF-8"?>
<svg width="400pt" version="1.1" xmlns="http://www.w3.org/2000/svg" height="200pt" viewBox="0 0 400 200" xmlns:xlink="http://www.w3.org/1999/xlink">
 <defs>
  <path id="GlAgencyFB-Reg70" d="M3.07125 2.95891 L1.28906 2.95891 L1.28906 5.85938 L2.92969 5.85938 L2.92969 6.46969 L1.28906 6.46969 L1.28906 10 L0.610313 10 L0.610313 2.35844 L3.07125 2.35844 L3.07125 2.95891 Z"/>
  <path id="GlAgencyFB-Reg79" d="M3.83797 9.45797 C3.83797 9.45797 3.83797 9.69719 3.68406 9.84859 C3.68406 9.84859 3.53031 10 3.29109 10 L1.15234 10 C1.15234 10 0.913125 10 0.761719 9.84859 C0.761719 9.84859 0.610313 9.69719 0.610313 9.45797 L0.610313 2.90031 C0.610313 2.90031 0.610313 2.66109 0.761719 2.50984 C0.761719 2.50984 0.913125 2.35844 1.15234 2.35844 L3.29109 2.35844 C3.29109 2.35844 3.53031 2.35844 3.68406 2.50984 C3.68406 2.50984 3.83797 2.66109 3.83797 2.90031 L3.83797 9.45797 L3.83797 9.45797 Z M3.15922 9.39937 L3.15922 2.95891 L1.28906 2.95891 L1.28906 9.39937 L3.15922 9.39937 Z"/>
  <path id="GlAgencyFB-Reg82" d="M3.86234 10 L3.14938 10 L1.72859 5.90813 L1.82125 5.77141 L3.03219 5.77141 L3.03219 2.95891 L1.28906 2.95891 L1.28906 10 L0.610313 10 L0.610313 2.35844 L3.16891 2.35844 C3.16891 2.35844 3.40828 2.35844 3.55953 2.50984 C3.55953 2.50984 3.71094 2.66109 3.71094 2.90031 L3.71094 5.80078 C3.71094 5.80078 3.71094 6.3525 2.96875 6.3525 C2.96875 6.3525 2.89547 6.3525 2.75391 6.34516 C2.75391 6.34516 2.61234 6.33781 2.54891 6.33781 C2.54891 6.33781 3.20797 8.16406 3.86234 10 Z"/>
  <path id="GlAgencyFB-Reg71" d="M3.70125 9.45797 C3.70125 9.45797 3.70125 9.69719 3.54984 9.84859 C3.54984 9.84859 3.39844 10 3.15922 10 L1.15234 10 C1.15234 10 0.913125 10 0.761719 9.84859 C0.761719 9.84859 0.610313 9.69719 0.610313 9.45797 L0.610313 2.90031 C0.610313 2.90031 0.610313 2.66109 0.761719 2.50984 C0.761719 2.50984 0.913125 2.35844 1.15234 2.35844 L3.15922 2.35844 C3.15922 2.35844 3.39844 2.35844 3.54984 2.50984 C3.54984 2.50984 3.70125 2.66109 3.70125 2.90031 L3.70125 4.67766 L3.01766 4.67766 L3.01766 2.95891 L1.28906 2.95891 L1.28906 9.39937 L3.01766 9.39937 L3.01766 6.75781 L2.20219 6.75781 L2.20219 6.17188 L3.70125 6.17188 L3.70125 9.45797 Z"/>
  <path id="GlAgencyFB-Reg73" d="M1.32812 10 L0.649375 10 L0.649375 2.35844 L1.32812 2.35844 L1.32812 10 Z"/>
  <path id="GlAgencyFB-Reg83" d="M3.58891 9.45797 C3.58891 9.45797 3.58891 9.69719 3.44 9.84859 C3.44 9.84859 3.29109 10 3.05172 10 L1.12797 10 C1.12797 10 0.88875 10 0.734844 9.84859 C0.734844 9.84859 0.581094 9.69719 0.581094 9.45797 L0.581094 7.51953 L1.25984 7.51953 L1.25984 9.39937 L2.91016 9.39937 L2.91016 7.57812 L0.800781 5.02922 C0.800781 5.02922 0.581094 4.76562 0.581094 4.44828 L0.581094 2.90031 C0.581094 2.90031 0.581094 2.66109 0.734844 2.50984 C0.734844 2.50984 0.88875 2.35844 1.12797 2.35844 L3.05172 2.35844 C3.05172 2.35844 3.29109 2.35844 3.44 2.50984 C3.44 2.50984 3.58891 2.66109 3.58891 2.90031 L3.58891 4.67766 L2.91016 4.67766 L2.91016 2.95891 L1.25984 2.95891 L1.25984 4.57031 L3.37891 7.11906 C3.37891 7.11906 3.58891 7.37297 3.58891 7.69047 L3.58891 9.45797 Z"/>
  <path id="GlArialMT83" d="M0.449219 7.70016 L1.34281 7.62203 C1.34281 7.62203 1.40625 8.15922 1.63813 8.50344 C1.63813 8.50344 1.87016 8.84766 2.35844 9.06016 C2.35844 9.06016 2.84672 9.2725 3.45703 9.2725 C3.45703 9.2725 3.99906 9.2725 4.41406 9.11141 C4.41406 9.11141 4.82906 8.95016 5.03172 8.66938 C5.03172 8.66938 5.23438 8.38859 5.23438 8.05656 C5.23438 8.05656 5.23438 7.71969 5.03906 7.46828 C5.03906 7.46828 4.84375 7.21672 4.39453 7.04594 C4.39453 7.04594 4.10641 6.93359 3.12 6.69688 C3.12 6.69688 2.13375 6.46 1.73828 6.25 C1.73828 6.25 1.22562 5.98141 0.974063 5.58344 C0.974063 5.58344 0.722656 5.18547 0.722656 4.69234 C0.722656 4.69234 0.722656 4.15031 1.03031 3.67922 C1.03031 3.67922 1.33797 3.20797 1.92875 2.96391 C1.92875 2.96391 2.51953 2.71969 3.24219 2.71969 C3.24219 2.71969 4.03812 2.71969 4.64594 2.97609 C4.64594 2.97609 5.25391 3.23234 5.58109 3.73047 C5.58109 3.73047 5.90828 4.22844 5.93266 4.85844 L5.02438 4.92672 C5.02438 4.92672 4.95125 4.24797 4.52875 3.90141 C4.52875 3.90141 4.10641 3.55469 3.28125 3.55469 C3.28125 3.55469 2.42188 3.55469 2.02875 3.86969 C2.02875 3.86969 1.63578 4.18453 1.63578 4.62891 C1.63578 4.62891 1.63578 5.01469 1.91406 5.26359 C1.91406 5.26359 2.1875 5.51266 3.34219 5.77391 C3.34219 5.77391 4.49703 6.03516 4.92672 6.23047 C4.92672 6.23047 5.55172 6.51859 5.84953 6.96047 C5.84953 6.96047 6.1475 7.40234 6.1475 7.97844 C6.1475 7.97844 6.1475 8.54984 5.82031 9.05516 C5.82031 9.05516 5.49313 9.56047 4.88031 9.84125 C4.88031 9.84125 4.26766 10.122 3.50094 10.122 C3.50094 10.122 2.52937 10.122 1.8725 9.83891 C1.8725 9.83891 1.21578 9.55562 0.842187 8.98687 C0.842187 8.98687 0.46875 8.41797 0.449219 7.70016 Z"/>
  <path id="GlArialMT116" d="M2.57812 9.21391 L2.70516 9.99016 C2.70516 9.99016 2.33406 10.0684 2.04109 10.0684 C2.04109 10.0684 1.5625 10.0684 1.29875 9.91703 C1.29875 9.91703 1.03516 9.76562 0.927656 9.51906 C0.927656 9.51906 0.820312 9.2725 0.820312 8.48141 L0.820312 5.49797 L0.175781 5.49797 L0.175781 4.81438 L0.820312 4.81438 L0.820312 3.53031 L1.69437 3.00297 L1.69437 4.81438 L2.57812 4.81438 L2.57812 5.49797 L1.69437 5.49797 L1.69437 8.53031 C1.69437 8.53031 1.69437 8.90625 1.74078 9.01375 C1.74078 9.01375 1.78719 9.12109 1.89203 9.18453 C1.89203 9.18453 1.99703 9.24797 2.19234 9.24797 C2.19234 9.24797 2.33891 9.24797 2.57812 9.21391 Z"/>
  <path id="GlArialMT117" d="M4.05766 10 L4.05766 9.23828 C4.05766 9.23828 3.45219 10.1172 2.41219 10.1172 C2.41219 10.1172 1.95312 10.1172 1.55516 9.94141 C1.55516 9.94141 1.15719 9.76562 0.964375 9.49953 C0.964375 9.49953 0.771563 9.23344 0.693438 8.84766 C0.693438 8.84766 0.639687 8.58891 0.639687 8.02734 L0.639687 4.81438 L1.51859 4.81438 L1.51859 7.69047 C1.51859 7.69047 1.51859 8.37891 1.57234 8.61812 C1.57234 8.61812 1.65531 8.96484 1.92375 9.16266 C1.92375 9.16266 2.19234 9.36031 2.58797 9.36031 C2.58797 9.36031 2.98344 9.36031 3.33 9.15766 C3.33 9.15766 3.67672 8.955 3.82078 8.60594 C3.82078 8.60594 3.96484 8.25688 3.96484 7.59281 L3.96484 4.81438 L4.84375 4.81438 L4.84375 10 L4.05766 10 Z"/>
  <path id="GlArialMT100" d="M4.02344 10 L4.02344 9.34563 C4.02344 9.34563 3.53031 10.1172 2.57328 10.1172 C2.57328 10.1172 1.95312 10.1172 1.43312 9.77547 C1.43312 9.77547 0.913125 9.43359 0.6275 8.82078 C0.6275 8.82078 0.341875 8.20797 0.341875 7.41203 C0.341875 7.41203 0.341875 6.63578 0.600625 6.00344 C0.600625 6.00344 0.859375 5.37109 1.37688 5.03422 C1.37688 5.03422 1.89453 4.69719 2.53422 4.69719 C2.53422 4.69719 3.00297 4.69719 3.36906 4.895 C3.36906 4.895 3.73531 5.09281 3.96484 5.41016 L3.96484 2.84172 L4.83891 2.84172 L4.83891 10 L4.02344 10 L4.02344 10 Z M1.24516 7.41203 C1.24516 7.41203 1.24516 8.40813 1.665 8.90141 C1.665 8.90141 2.085 9.39453 2.65625 9.39453 C2.65625 9.39453 3.2325 9.39453 3.63531 8.92344 C3.63531 8.92344 4.03812 8.45219 4.03812 7.48531 C4.03812 7.48531 4.03812 6.42094 3.62797 5.92297 C3.62797 5.92297 3.21781 5.42484 2.61719 5.42484 C2.61719 5.42484 2.03125 5.42484 1.63813 5.90344 C1.63813 5.90344 1.24516 6.38187 1.24516 7.41203 Z"/>
  <path id="GlArialMT105" d="M0.664062 3.8525 L0.664062 2.84172 L1.54297 2.84172 L1.54297 3.8525 L0.664062 3.8525 L0.664062 3.8525 Z M0.664062 10 L0.664062 4.81438 L1.54297 4.81438 L1.54297 10 L0.664062 10 Z"/>
  <path id="GlArialMT111" d="M0.332031 7.40719 C0.332031 7.40719 0.332031 5.96672 1.13281 5.27344 C1.13281 5.27344 1.80172 4.69719 2.76375 4.69719 C2.76375 4.69719 3.83297 4.69719 4.51172 5.39797 C4.51172 5.39797 5.19047 6.09859 5.19047 7.33391 C5.19047 7.33391 5.19047 8.335 4.89016 8.90875 C4.89016 8.90875 4.58984 9.48234 4.01609 9.79984 C4.01609 9.79984 3.44234 10.1172 2.76375 10.1172 C2.76375 10.1172 1.67484 10.1172 1.00344 9.41891 C1.00344 9.41891 0.332031 8.72063 0.332031 7.40719 L0.332031 7.40719 Z M1.23531 7.40719 C1.23531 7.40719 1.23531 8.40328 1.66984 8.89891 C1.66984 8.89891 2.10453 9.39453 2.76375 9.39453 C2.76375 9.39453 3.41797 9.39453 3.8525 8.89656 C3.8525 8.89656 4.28719 8.39844 4.28719 7.37797 C4.28719 7.37797 4.28719 6.41594 3.85016 5.92047 C3.85016 5.92047 3.41312 5.42484 2.76375 5.42484 C2.76375 5.42484 2.10453 5.42484 1.66984 5.91797 C1.66984 5.91797 1.23531 6.41109 1.23531 7.40719 Z"/>
  <path id="GlArialMT84" d="M2.59281 10 L2.59281 3.68656 L0.234375 3.68656 L0.234375 2.84172 L5.90828 2.84172 L5.90828 3.68656 L3.54 3.68656 L3.54 10 L2.59281 10 Z"/>
  <path id="GlArialMT101" d="M4.20906 8.33 L5.11719 8.44234 C5.11719 8.44234 4.90234 9.23828 4.32125 9.67781 C4.32125 9.67781 3.74031 10.1172 2.83688 10.1172 C2.83688 10.1172 1.69922 10.1172 1.03266 9.41656 C1.03266 9.41656 0.36625 8.71578 0.36625 7.45109 C0.36625 7.45109 0.36625 6.1425 1.04 5.41984 C1.04 5.41984 1.71391 4.69719 2.78812 4.69719 C2.78812 4.69719 3.82812 4.69719 4.48734 5.40531 C4.48734 5.40531 5.14656 6.11328 5.14656 7.3975 C5.14656 7.3975 5.14656 7.47562 5.14156 7.63187 L1.27438 7.63187 C1.27438 7.63187 1.32328 8.48625 1.75781 8.94047 C1.75781 8.94047 2.19234 9.39453 2.84187 9.39453 C2.84187 9.39453 3.32516 9.39453 3.66688 9.14062 C3.66688 9.14062 4.00875 8.88672 4.20906 8.33 L4.20906 8.33 Z M1.32328 6.90922 L4.21875 6.90922 C4.21875 6.90922 4.16016 6.25484 3.88672 5.92766 C3.88672 5.92766 3.46687 5.41984 2.79781 5.41984 C2.79781 5.41984 2.19234 5.41984 1.77969 5.82516 C1.77969 5.82516 1.36719 6.23047 1.32328 6.90922 Z"/>
  <path id="GlArialMT99" d="M4.04297 8.10063 L4.90719 8.21281 C4.90719 8.21281 4.76562 9.10641 4.18203 9.61187 C4.18203 9.61187 3.59859 10.1172 2.74906 10.1172 C2.74906 10.1172 1.68453 10.1172 1.0375 9.42141 C1.0375 9.42141 0.390625 8.72563 0.390625 7.42672 C0.390625 7.42672 0.390625 6.58688 0.668906 5.95703 C0.668906 5.95703 0.947344 5.32719 1.51609 5.01219 C1.51609 5.01219 2.085 4.69719 2.75391 4.69719 C2.75391 4.69719 3.59859 4.69719 4.13563 5.12453 C4.13563 5.12453 4.67281 5.55172 4.82422 6.33781 L3.96969 6.46969 C3.96969 6.46969 3.84766 5.94719 3.5375 5.68359 C3.5375 5.68359 3.2275 5.41984 2.78812 5.41984 C2.78812 5.41984 2.12406 5.41984 1.70891 5.89594 C1.70891 5.89594 1.29391 6.37203 1.29391 7.40234 C1.29391 7.40234 1.29391 8.44719 1.69422 8.92094 C1.69422 8.92094 2.09469 9.39453 2.73922 9.39453 C2.73922 9.39453 3.25687 9.39453 3.60344 9.07719 C3.60344 9.07719 3.95016 8.75969 4.04297 8.10063 Z"/>
  <path id="GlArialMT110" d="M0.659219 10 L0.659219 4.81438 L1.45016 4.81438 L1.45016 5.55172 C1.45016 5.55172 2.02156 4.69719 3.10062 4.69719 C3.10062 4.69719 3.56937 4.69719 3.96234 4.86578 C3.96234 4.86578 4.35547 5.03422 4.55078 5.30766 C4.55078 5.30766 4.74609 5.58109 4.82422 5.95703 C4.82422 5.95703 4.87312 6.20109 4.87312 6.81156 L4.87312 10 L3.99422 10 L3.99422 6.84563 C3.99422 6.84563 3.99422 6.30859 3.89156 6.0425 C3.89156 6.0425 3.78906 5.77641 3.52781 5.61766 C3.52781 5.61766 3.26656 5.45891 2.915 5.45891 C2.915 5.45891 2.35359 5.45891 1.94578 5.81547 C1.94578 5.81547 1.53812 6.17188 1.53812 7.16797 L1.53812 10 L0.659219 10 Z"/>
  <path id="GlArialMT70" d="M0.820312 10 L0.820312 2.84172 L5.64938 2.84172 L5.64938 3.68656 L1.76766 3.68656 L1.76766 5.90328 L5.12703 5.90328 L5.12703 6.74797 L1.76766 6.74797 L1.76766 10 L0.820312 10 Z"/>
  <path id="GlArialMT114" d="M0.649375 10 L0.649375 4.81438 L1.44047 4.81438 L1.44047 5.60062 C1.44047 5.60062 1.74313 5.04875 1.99953 4.87297 C1.99953 4.87297 2.25594 4.69719 2.56344 4.69719 C2.56344 4.69719 3.00781 4.69719 3.46687 4.98047 L3.16406 5.79594 C3.16406 5.79594 2.84187 5.60547 2.51953 5.60547 C2.51953 5.60547 2.23141 5.60547 2.00188 5.77891 C2.00188 5.77891 1.7725 5.95219 1.67484 6.25969 C1.67484 6.25969 1.52828 6.72844 1.52828 7.28516 L1.52828 10 L0.649375 10 Z"/>
  <path id="GlArialMT115" d="M0.307656 8.45219 L1.17672 8.31547 C1.17672 8.31547 1.25 8.83781 1.58438 9.11625 C1.58438 9.11625 1.91891 9.39453 2.51953 9.39453 C2.51953 9.39453 3.125 9.39453 3.41797 9.14797 C3.41797 9.14797 3.71094 8.90141 3.71094 8.56938 C3.71094 8.56938 3.71094 8.27141 3.45219 8.10063 C3.45219 8.10063 3.27156 7.98344 2.55375 7.80266 C2.55375 7.80266 1.58688 7.55859 1.21328 7.38047 C1.21328 7.38047 0.839844 7.20219 0.646875 6.88719 C0.646875 6.88719 0.454063 6.57219 0.454063 6.19141 C0.454063 6.19141 0.454063 5.84469 0.612812 5.54937 C0.612812 5.54937 0.771563 5.25391 1.045 5.05859 C1.045 5.05859 1.25 4.90719 1.60391 4.80219 C1.60391 4.80219 1.95797 4.69719 2.36328 4.69719 C2.36328 4.69719 2.97359 4.69719 3.435 4.87297 C3.435 4.87297 3.89656 5.04875 4.11625 5.34906 C4.11625 5.34906 4.33594 5.64938 4.41891 6.15234 L3.55953 6.26953 C3.55953 6.26953 3.50094 5.86906 3.22016 5.64453 C3.22016 5.64453 2.93953 5.41984 2.42672 5.41984 C2.42672 5.41984 1.82125 5.41984 1.5625 5.62016 C1.5625 5.62016 1.30375 5.82031 1.30375 6.08891 C1.30375 6.08891 1.30375 6.25969 1.41109 6.39641 C1.41109 6.39641 1.51859 6.53812 1.74812 6.63078 C1.74812 6.63078 1.87984 6.67969 2.52438 6.85547 C2.52438 6.85547 3.45703 7.10453 3.82563 7.26328 C3.82563 7.26328 4.19437 7.42188 4.40422 7.72469 C4.40422 7.72469 4.61422 8.02734 4.61422 8.47656 C4.61422 8.47656 4.61422 8.91594 4.35781 9.30422 C4.35781 9.30422 4.10156 9.69234 3.61813 9.90484 C3.61813 9.90484 3.13484 10.1172 2.52438 10.1172 C2.52438 10.1172 1.51375 10.1172 0.983906 9.69734 C0.983906 9.69734 0.454063 9.27734 0.307656 8.45219 Z"/>
  <path id="GlArialMT97" d="M4.04297 9.36031 C4.04297 9.36031 3.55469 9.77531 3.10297 9.94625 C3.10297 9.94625 2.65141 10.1172 2.13375 10.1172 C2.13375 10.1172 1.27937 10.1172 0.820312 9.69969 C0.820312 9.69969 0.361406 9.28219 0.361406 8.63281 C0.361406 8.63281 0.361406 8.25188 0.534687 7.93703 C0.534687 7.93703 0.707969 7.62203 0.98875 7.43172 C0.98875 7.43172 1.26953 7.24125 1.62109 7.14359 C1.62109 7.14359 1.87984 7.07516 2.40234 7.01172 C2.40234 7.01172 3.46687 6.88469 3.96969 6.70891 C3.96969 6.70891 3.97469 6.52828 3.97469 6.47953 C3.97469 6.47953 3.97469 5.94234 3.72562 5.72266 C3.72562 5.72266 3.38875 5.42484 2.72469 5.42484 C2.72469 5.42484 2.10453 5.42484 1.80906 5.64219 C1.80906 5.64219 1.51375 5.85938 1.37203 6.41109 L0.512656 6.29391 C0.512656 6.29391 0.629844 5.74219 0.898438 5.40281 C0.898438 5.40281 1.16703 5.06344 1.67484 4.88031 C1.67484 4.88031 2.18266 4.69719 2.85156 4.69719 C2.85156 4.69719 3.51562 4.69719 3.93063 4.85344 C3.93063 4.85344 4.34578 5.00969 4.54109 5.24656 C4.54109 5.24656 4.73641 5.48344 4.81453 5.84469 C4.81453 5.84469 4.85844 6.06937 4.85844 6.65531 L4.85844 7.82719 C4.85844 7.82719 4.85844 9.05266 4.91453 9.3775 C4.91453 9.3775 4.97078 9.70219 5.13672 10 L4.21875 10 C4.21875 10 4.08203 9.72656 4.04297 9.36031 L4.04297 9.36031 Z M3.96969 7.3975 C3.96969 7.3975 3.49125 7.59281 2.53422 7.72953 C2.53422 7.72953 1.99219 7.80766 1.7675 7.90531 C1.7675 7.90531 1.54297 8.00297 1.42094 8.19094 C1.42094 8.19094 1.29891 8.37891 1.29891 8.60844 C1.29891 8.60844 1.29891 8.96 1.565 9.19438 C1.565 9.19438 1.83109 9.42875 2.34375 9.42875 C2.34375 9.42875 2.85156 9.42875 3.24703 9.20656 C3.24703 9.20656 3.64266 8.98438 3.82812 8.59859 C3.82812 8.59859 3.96969 8.30078 3.96969 7.71969 L3.96969 7.3975 Z"/>
  <path id="GlArialMT108" d="M0.639687 10 L0.639687 2.84172 L1.51859 2.84172 L1.51859 10 L0.639687 10 Z"/>
  <path id="GlArialMT71" d="M4.12109 7.19234 L4.12109 6.3525 L7.15328 6.34766 L7.15328 9.00391 C7.15328 9.00391 6.45516 9.56047 5.71297 9.84125 C5.71297 9.84125 4.97078 10.122 4.18953 10.122 C4.18953 10.122 3.13484 10.122 2.27297 9.67047 C2.27297 9.67047 1.41109 9.21875 0.971562 8.36422 C0.971562 8.36422 0.532188 7.50969 0.532188 6.455 C0.532188 6.455 0.532188 5.41016 0.969219 4.50437 C0.969219 4.50437 1.40625 3.59859 2.22656 3.15922 C2.22656 3.15922 3.04688 2.71969 4.11625 2.71969 C4.11625 2.71969 4.89266 2.71969 5.52 2.97125 C5.52 2.97125 6.1475 3.22266 6.50391 3.67188 C6.50391 3.67188 6.86031 4.12109 7.04594 4.84375 L6.19141 5.07812 C6.19141 5.07812 6.03031 4.53125 5.79094 4.21875 C5.79094 4.21875 5.55172 3.90625 5.10734 3.71828 C5.10734 3.71828 4.66312 3.53031 4.12109 3.53031 C4.12109 3.53031 3.47172 3.53031 2.99797 3.72812 C2.99797 3.72812 2.52438 3.92578 2.23391 4.24812 C2.23391 4.24812 1.94344 4.57031 1.78219 4.95609 C1.78219 4.95609 1.50875 5.62016 1.50875 6.39641 C1.50875 6.39641 1.50875 7.35344 1.83828 7.99797 C1.83828 7.99797 2.16797 8.6425 2.79781 8.955 C2.79781 8.955 3.42781 9.2675 4.13578 9.2675 C4.13578 9.2675 4.75094 9.2675 5.33688 9.03078 C5.33688 9.03078 5.92281 8.79391 6.22562 8.52531 L6.22562 7.19234 L4.12109 7.19234 Z"/>
  <path id="GlArialMT73" d="M0.932656 10 L0.932656 2.84172 L1.87984 2.84172 L1.87984 10 L0.932656 10 Z"/>
  <clipPath id="Clip0">
   <path d="M0 0 L36.5 0 L36.5 53.8749 L0 53.8749 L0 0 Z" transform="translate(97.5, 49.125)"/>
  </clipPath>
  <clipPath id="Clip1">
   <path d="M0 0 L36.5 0 L36.5 53.8749 L0 53.8749 L0 0 Z" transform="translate(97.5, 49.125)"/>
  </clipPath>
  <clipPath id="Clip2">
   <path d="M0 0 L36.5 0 L36.5 53.8749 L0 53.8749 L0 0 Z" transform="translate(97.5, 49.125)"/>
  </clipPath>
  <clipPath id="Clip3">
   <path d="M0 53.8749 L36.5 53.8749 L36.5 0 L0 0 L0 53.8749 Z" transform="translate(97.5, 49.125)"/>
  </clipPath>
 </defs>
 <g id="Sfondo">
  <g transform="translate(147.625, 43.5)">
   <use style="fill:#161413;stroke:none;" xlink:href="#GlAgencyFB-Reg70" transform="matrix(8.5 0 0 8.5 0.626465 -20.0464)"/>
   <use style="fill:#161413;stroke:none;" xlink:href="#GlAgencyFB-Reg79" transform="matrix(8.5 0 0 8.5 29.5132 -20.0464)"/>
   <use style="fill:#161413;stroke:none;" xlink:href="#GlAgencyFB-Reg82" transform="matrix(8.5 0 0 8.5 67.3232 -20.0464)"/>
   <use style="fill:#8dbd0c;stroke:none;" xlink:href="#GlAgencyFB-Reg71" transform="matrix(8.5 0 0 8.5 103.598 -20.0464)"/>
   <use style="fill:#8dbd0c;stroke:none;" xlink:href="#GlAgencyFB-Reg73" transform="matrix(8.5 0 0 8.5 140.163 -20.0464)"/>
   <use style="fill:#8dbd0c;stroke:none;" xlink:href="#GlAgencyFB-Reg83" transform="matrix(8.5 0 0 8.5 157.096 -20.0464)"/>
   <use style="fill:#161413;stroke:none;" xlink:href="#GlArialMT83" transform="matrix(1.2 0 0 1.2 11.585 67.9536)"/>
   <use style="fill:#161413;stroke:none;" xlink:href="#GlArialMT116" transform="matrix(1.2 0 0 1.2 19.5889 67.9536)"/>
   <use style="fill:#161413;stroke:none;" xlink:href="#GlArialMT117" transform="matrix(1.2 0 0 1.2 22.9229 67.9536)"/>
   <use style="fill:#161413;stroke:none;" xlink:href="#GlArialMT100" transform="matrix(1.2 0 0 1.2 29.5967 67.9536)"/>
   <use style="fill:#161413;stroke:none;" xlink:href="#GlArialMT105" transform="matrix(1.2 0 0 1.2 36.2705 67.9536)"/>
   <use style="fill:#161413;stroke:none;" xlink:href="#GlArialMT111" transform="matrix(1.2 0 0 1.2 38.9365 67.9536)"/>
   <use style="fill:#161413;stroke:none;" xlink:href="#GlArialMT84" transform="matrix(1.2 0 0 1.2 48.9443 67.9536)"/>
   <use style="fill:#161413;stroke:none;" xlink:href="#GlArialMT101" transform="matrix(1.2 0 0 1.2 56.2744 67.9536)"/>
   <use style="fill:#161413;stroke:none;" xlink:href="#GlArialMT99" transform="matrix(1.2 0 0 1.2 62.9482 67.9536)"/>
   <use style="fill:#161413;stroke:none;" xlink:href="#GlArialMT110" transform="matrix(1.2 0 0 1.2 68.9482 67.9536)"/>
   <use style="fill:#161413;stroke:none;" xlink:href="#GlArialMT105" transform="matrix(1.2 0 0 1.2 75.6221 67.9536)"/>
   <use style="fill:#161413;stroke:none;" xlink:href="#GlArialMT99" transform="matrix(1.2 0 0 1.2 78.2881 67.9536)"/>
   <use style="fill:#161413;stroke:none;" xlink:href="#GlArialMT111" transform="matrix(1.2 0 0 1.2 84.2881 67.9536)"/>
   <use style="fill:#161413;stroke:none;" xlink:href="#GlArialMT70" transform="matrix(1.2 0 0 1.2 94.2959 67.9536)"/>
   <use style="fill:#161413;stroke:none;" xlink:href="#GlArialMT111" transform="matrix(1.2 0 0 1.2 101.626 67.9536)"/>
   <use style="fill:#161413;stroke:none;" xlink:href="#GlArialMT114" transform="matrix(1.2 0 0 1.2 108.3 67.9536)"/>
   <use style="fill:#161413;stroke:none;" xlink:href="#GlArialMT101" transform="matrix(1.2 0 0 1.2 112.296 67.9536)"/>
   <use style="fill:#161413;stroke:none;" xlink:href="#GlArialMT115" transform="matrix(1.2 0 0 1.2 118.97 67.9536)"/>
   <use style="fill:#161413;stroke:none;" xlink:href="#GlArialMT116" transform="matrix(1.2 0 0 1.2 124.97 67.9536)"/>
   <use style="fill:#161413;stroke:none;" xlink:href="#GlArialMT97" transform="matrix(1.2 0 0 1.2 128.304 67.9536)"/>
   <use style="fill:#161413;stroke:none;" xlink:href="#GlArialMT108" transform="matrix(1.2 0 0 1.2 134.978 67.9536)"/>
   <use style="fill:#161413;stroke:none;" xlink:href="#GlArialMT101" transform="matrix(1.2 0 0 1.2 137.644 67.9536)"/>
   <use style="fill:#161413;stroke:none;" xlink:href="#GlArialMT101" transform="matrix(1.2 0 0 1.2 147.651 67.9536)"/>
   <use style="fill:#161413;stroke:none;" xlink:href="#GlArialMT71" transform="matrix(1.2 0 0 1.2 157.659 67.9536)"/>
   <use style="fill:#161413;stroke:none;" xlink:href="#GlArialMT73" transform="matrix(1.2 0 0 1.2 166.993 67.9536)"/>
   <use style="fill:#161413;stroke:none;" xlink:href="#GlArialMT83" transform="matrix(1.2 0 0 1.2 170.327 67.9536)"/>
   <path style="fill:none; stroke:none;" d="M0 0 L194.25 0 L194.25 100.125 L0 100.125 L0 0 Z"/>
  </g>
  <g id="Copia di svg2" clip-path="url(#Clip0)">
   <g id="Copia di g10" clip-path="url(#Clip1)">
    <g id="Copia di g12" clip-path="url(#Clip2)">
     <g id="Copia di g14" clip-path="url(#Clip3)">
      <path style="fill:#000d17; fill-rule:evenodd; fill-opacity:0;stroke:none;" id="Copia di  path20" d="M0 53.8749 L36.5 53.8749 L36.5 0 L0 0 L0 53.8749 Z" transform="translate(97.5, 49.125)"/>
     </g>
    </g>
    <path style="fill:#000d17; fill-rule:evenodd;stroke:none;" id="Copia di  path22" d="M15.6444 47.8236 C15.0259 50.65 13.3421 47.1257 12.8061 46.3228 C12.2708 45.5202 12.0086 45.112 11.849 44.5787 C11.6895 44.0462 11.5678 43.716 11.849 43.1248 C12.1302 42.5336 13.2914 41.5169 13.5348 41.032 C13.7781 40.5471 13.7112 40.6127 13.309 40.2156 C12.9061 39.8184 11.703 39.0973 11.119 38.6497 C10.535 38.2021 9.997 37.9432 9.80502 37.5307 C9.61304 37.1184 9.65227 36.5472 9.96861 36.1749 C10.2842 35.802 11.292 35.6078 11.703 35.2929 C12.114 34.9787 12.4087 34.6222 12.433 34.2865 C12.4573 33.9509 12.4573 33.7271 11.849 33.2795 C11.2407 32.832 9.99968 32.2538 8.78367 31.6011 C7.56701 30.9484 5.59601 30.016 4.54977 29.364 C3.50357 28.7112 2.8223 28.189 2.50603 27.6855 C2.18977 27.182 2.45737 26.6411 2.65203 26.3428 C2.84663 26.0444 3.13863 26.063 3.6739 25.8952 C4.20916 25.7274 5.27978 25.5035 5.86367 25.3358 C6.44767 25.1679 6.93434 25.0933 7.17767 24.8881 C7.42101 24.6837 7.66434 24.4972 7.32367 24.1056 C6.98301 23.7139 6.13129 23.3783 5.13378 22.539 C4.13616 21.6998 2.16544 20.0035 1.33817 19.071 C0.510904 18.1386 0.34064 17.5978 0.170306 16.9451 C0 16.2923 0.121633 15.5464 0.316306 15.1548 C0.510904 14.7638 0.875904 14.6332 1.33817 14.596 C1.8005 14.5587 2.4817 14.8011 3.08997 14.9316 C3.69824 15.0622 4.40383 15.3972 4.98777 15.3785 C5.57167 15.3599 6.25296 15.2667 6.59367 14.8197 C6.93434 14.3722 7.10467 13.6636 7.03167 12.6938 C6.95867 11.724 6.37467 9.97097 6.15562 9.00193 C5.93662 8.03218 5.74201 7.34217 5.71767 6.87594 C5.69329 6.40971 5.69329 6.29783 6.00967 6.20458 C6.32601 6.11134 6.86134 6.09269 7.61567 6.31647 C8.37001 6.54026 9.90235 7.37947 10.535 7.54731 C11.1677 7.71515 11.2434 7.78011 11.411 7.32352 C11.5787 6.86766 11.3427 5.77638 11.5401 4.81006 C11.7368 3.84377 12.0288 2.318 12.5939 1.52507 C13.1596 0.732145 14.2803 0.102915 14.9319 0.0518028 C15.5835 0 15.9222 0.582953 16.5034 1.21633 C17.0847 1.85039 17.9533 3.26634 18.4184 3.85551 C18.8834 4.44468 18.9537 4.60147 19.2944 4.75066 C19.635 4.89986 20 4.84391 20.4624 4.75066 C20.9247 4.65742 21.6783 4.1539 22.0676 4.19119 C22.457 4.22849 22.603 4.52688 22.7976 4.97445 C22.9923 5.42132 23.1626 6.01809 23.2356 6.87594 C23.3086 7.7338 23.0924 9.41427 23.2356 10.1209 C23.379 10.8268 23.7561 10.909 24.0968 11.1141 C24.4368 11.3193 24.7416 11.4982 25.2796 11.351 C25.8177 11.2046 26.6315 10.4772 27.323 10.2321 C28.0151 9.98754 28.7127 9.86466 29.4319 9.88332 C30.1511 9.90198 31.1136 10.1368 31.6381 10.344 C32.1626 10.5519 32.4709 10.5492 32.579 11.1273 C32.6865 11.7053 32.7737 12.7124 32.287 13.8127 C31.8003 14.9129 30.4377 16.628 29.659 17.7283 C28.8803 18.8286 28.0773 19.6492 27.615 20.4131 C27.1533 21.1777 26.9343 21.8118 26.8856 22.3152 C26.837 22.8188 27.104 23.1918 27.323 23.4342 C27.542 23.6767 27.688 23.7139 28.199 23.7699 C28.71 23.8259 30.389 23.7699 30.389 23.7699 C31.3867 23.7699 33.357 23.6952 34.1843 23.7699 C35.0117 23.8445 35.2475 23.8631 35.3523 24.2174 C35.4578 24.5718 35.132 25.3543 34.8156 25.8952 C34.5 26.436 34.333 27.0183 33.4543 27.4617 C32.5763 27.9051 30.4214 28.2574 29.5454 28.5557 C28.6694 28.8541 28.8371 28.7817 28.199 29.252 C27.5616 29.7224 26.4963 30.7246 25.7176 31.3773 C24.939 32.03 23.99 32.6081 23.5276 33.1677 C23.0653 33.7271 22.822 34.2865 22.9436 34.7335 C23.0653 35.181 23.7223 35.6659 24.2576 35.8523 C24.793 36.0388 25.6203 35.8151 26.1556 35.8523 C26.691 35.8897 27.3723 35.7964 27.469 36.0762 C27.567 36.3559 27.031 37.1205 26.7396 37.5307 C26.4476 37.9411 26.3016 38.1462 25.7176 38.5378 C25.1336 38.9294 23.2356 39.8799 23.2356 39.8799 C22.5786 40.2342 22.0676 40.3834 21.7756 40.6631 C21.4836 40.9429 21.4593 41.1107 21.4836 41.5583 C21.508 42.0058 21.8 42.6213 21.9216 43.3486 C22.0433 44.0759 22.4326 45.2501 22.2136 45.9215 C21.9946 46.5928 21.1673 47.0216 20.6084 47.376 C20.0487 47.7303 19.2944 47.2828 18.8564 48.0473 C18.4184 48.8118 18.394 51.3662 17.9804 51.9629 C17.5667 52.5596 16.423 53.1191 16.3744 51.6274 C16.3257 50.1357 17.6154 47.8608 17.6884 43.0129 C17.7614 38.1648 17.153 26.9209 16.8124 22.539 C16.4717 18.1572 15.693 15.5837 15.6444 16.7212 C15.5957 17.8589 16.5204 24.1988 16.5204 29.364 C16.5204 34.5283 16.2635 44.9974 15.6444 47.8236 L15.6444 47.8236 Z" transform="translate(97.9461, 49.7729)"/>
    <path style="fill:#000d17; fill-rule:nonzero;stroke:#44546a; stroke-width:0.018128; stroke-linecap:butt; stroke-linejoin:miter; stroke-dasharray:none;" id="Copia di  path24" d="M15.6444 47.8236 C15.0259 50.65 13.3421 47.1257 12.8061 46.3228 C12.2708 45.5202 12.0086 45.112 11.849 44.5787 C11.6895 44.0462 11.5678 43.716 11.849 43.1248 C12.1302 42.5336 13.2914 41.5169 13.5348 41.032 C13.7781 40.5471 13.7112 40.6127 13.309 40.2156 C12.9061 39.8184 11.703 39.0973 11.119 38.6497 C10.535 38.2021 9.997 37.9432 9.80502 37.5307 C9.61304 37.1184 9.65227 36.5472 9.96861 36.1749 C10.2842 35.802 11.292 35.6078 11.703 35.2929 C12.114 34.9787 12.4087 34.6222 12.433 34.2865 C12.4573 33.9509 12.4573 33.7271 11.849 33.2795 C11.2407 32.832 9.99968 32.2538 8.78367 31.6011 C7.56701 30.9484 5.59601 30.016 4.54977 29.364 C3.50357 28.7112 2.8223 28.189 2.50603 27.6855 C2.18977 27.182 2.45737 26.6411 2.65203 26.3428 C2.84663 26.0444 3.13863 26.063 3.6739 25.8952 C4.20916 25.7274 5.27978 25.5035 5.86367 25.3358 C6.44767 25.1679 6.93434 25.0933 7.17767 24.8881 C7.42101 24.6837 7.66434 24.4972 7.32367 24.1056 C6.98301 23.7139 6.13129 23.3783 5.13378 22.539 C4.13616 21.6998 2.16544 20.0035 1.33817 19.071 C0.510904 18.1386 0.34064 17.5978 0.170306 16.9451 C0 16.2923 0.121633 15.5464 0.316306 15.1548 C0.510904 14.7638 0.875904 14.6332 1.33817 14.596 C1.8005 14.5587 2.4817 14.8011 3.08997 14.9316 C3.69824 15.0622 4.40383 15.3972 4.98777 15.3785 C5.57167 15.3599 6.25296 15.2667 6.59367 14.8197 C6.93434 14.3722 7.10467 13.6636 7.03167 12.6938 C6.95867 11.724 6.37467 9.97097 6.15562 9.00193 C5.93662 8.03218 5.74201 7.34217 5.71767 6.87594 C5.69329 6.40971 5.69329 6.29783 6.00967 6.20458 C6.32601 6.11134 6.86134 6.09269 7.61567 6.31647 C8.37001 6.54026 9.90235 7.37947 10.535 7.54731 C11.1677 7.71515 11.2434 7.78011 11.411 7.32352 C11.5787 6.86766 11.3427 5.77638 11.5401 4.81006 C11.7368 3.84377 12.0288 2.318 12.5939 1.52507 C13.1596 0.732145 14.2803 0.102915 14.9319 0.0518028 C15.5835 0 15.9222 0.582953 16.5034 1.21633 C17.0847 1.85039 17.9533 3.26634 18.4184 3.85551 C18.8834 4.44468 18.9537 4.60147 19.2944 4.75066 C19.635 4.89986 20 4.84391 20.4624 4.75066 C20.9247 4.65742 21.6783 4.1539 22.0676 4.19119 C22.457 4.22849 22.603 4.52688 22.7976 4.97445 C22.9923 5.42132 23.1626 6.01809 23.2356 6.87594 C23.3086 7.7338 23.0924 9.41427 23.2356 10.1209 C23.379 10.8268 23.7561 10.909 24.0968 11.1141 C24.4368 11.3193 24.7416 11.4982 25.2796 11.351 C25.8177 11.2046 26.6315 10.4772 27.323 10.2321 C28.0151 9.98754 28.7127 9.86466 29.4319 9.88332 C30.1511 9.90198 31.1136 10.1368 31.6381 10.344 C32.1626 10.5519 32.4709 10.5492 32.579 11.1273 C32.6865 11.7053 32.7737 12.7124 32.287 13.8127 C31.8003 14.9129 30.4377 16.628 29.659 17.7283 C28.8803 18.8286 28.0773 19.6492 27.615 20.4131 C27.1533 21.1777 26.9343 21.8118 26.8856 22.3152 C26.837 22.8188 27.104 23.1918 27.323 23.4342 C27.542 23.6767 27.688 23.7139 28.199 23.7699 C28.71 23.8259 30.389 23.7699 30.389 23.7699 C31.3867 23.7699 33.357 23.6952 34.1843 23.7699 C35.0117 23.8445 35.2475 23.8631 35.3523 24.2174 C35.4578 24.5718 35.132 25.3543 34.8156 25.8952 C34.5 26.436 34.333 27.0183 33.4543 27.4617 C32.5763 27.9051 30.4214 28.2574 29.5454 28.5557 C28.6694 28.8541 28.8371 28.7817 28.199 29.252 C27.5616 29.7224 26.4963 30.7246 25.7176 31.3773 C24.939 32.03 23.99 32.6081 23.5276 33.1677 C23.0653 33.7271 22.822 34.2865 22.9436 34.7335 C23.0653 35.181 23.7223 35.6659 24.2576 35.8523 C24.793 36.0388 25.6203 35.8151 26.1556 35.8523 C26.691 35.8897 27.3723 35.7964 27.469 36.0762 C27.567 36.3559 27.031 37.1205 26.7396 37.5307 C26.4476 37.9411 26.3016 38.1462 25.7176 38.5378 C25.1336 38.9294 23.2356 39.8799 23.2356 39.8799 C22.5786 40.2342 22.0676 40.3834 21.7756 40.6631 C21.4836 40.9429 21.4593 41.1107 21.4836 41.5583 C21.508 42.0058 21.8 42.6213 21.9216 43.3486 C22.0433 44.0759 22.4326 45.2501 22.2136 45.9215 C21.9946 46.5928 21.1673 47.0216 20.6084 47.376 C20.0487 47.7303 19.2944 47.2828 18.8564 48.0473 C18.4184 48.8118 18.394 51.3662 17.9804 51.9629 C17.5667 52.5596 16.423 53.1191 16.3744 51.6274 C16.3257 50.1357 17.6154 47.8608 17.6884 43.0129 C17.7614 38.1648 17.153 26.9209 16.8124 22.539 C16.4717 18.1572 15.693 15.5837 15.6444 16.7212 C15.5957 17.8589 16.5204 24.1988 16.5204 29.364 C16.5204 34.5283 16.2635 44.9974 15.6444 47.8236 L15.6444 47.8236 Z" transform="translate(97.9461, 49.7729)"/>
   </g>
  </g>
  <path style="fill:#000d17; fill-rule:nonzero;stroke:none;" id="Copia di  svg_3" d="M38.5309 0.217325 C37.821 0 36.9449 0.014259 36.2607 0.254277 C35.5765 0.494295 35.1987 0.919872 35.2816 1.35714 C35.3645 1.79441 35.8943 2.17013 36.6545 2.33081 C41.0182 3.50497 43.6364 5.10183 43.6364 6.78088 C43.6364 9.96285 34.6473 12.6517 24 12.6517 C13.3527 12.6517 4.36364 9.96285 4.36364 6.78088 C4.36364 5.10183 6.91636 3.48149 11.3455 2.33081 C12.1057 2.17013 12.6355 1.79441 12.7184 1.35714 C12.8013 0.919872 12.4235 0.494295 11.7393 0.254277 C11.0551 0.014259 10.179 0 9.46909 0.217325 C3.44727 1.76722 0 4.1625 0 6.78088 C0 11.3953 10.5382 15 24 15 C37.4618 15 48 11.3953 48 6.78088 C48 4.1625 44.5527 1.76722 38.5309 0.217325 Z" transform="translate(90.375, 110.375)"/>
  <path style="fill:#161413; fill-rule:nonzero;stroke:none;" id="Copia di  svg_2" d="M30.4375 4.71845e-15 C13.6538 4.71845e-15 0 9.74512 0 22.0303 C0 24.7529 0.793825 27.7246 2.22271 30.3975 L2.20003 30.3975 L2.33611 30.5967 L2.33611 30.5967 C2.44952 30.7793 2.56292 30.9619 2.67632 31.1445 L30.4375 74.375 L58.0626 31.3604 L58.1987 31.1611 C58.3121 30.9785 58.4482 30.7959 58.5616 30.5967 L58.6523 30.4141 C60.1265 27.7412 60.875 24.9189 60.875 22.0635 C60.875 9.74512 47.2212 0 30.4375 0 L30.4375 4.71845e-15 Z M55.1821 29.4512 L55.1368 29.5342 C55.0687 29.6338 55.0007 29.75 54.9327 29.8496 L54.7058 30.1982 L30.4375 67.9502 L6.14647 30.1982 L5.94234 29.8662 C5.8743 29.7666 5.80626 29.667 5.7609 29.5674 C4.42274 27.1602 3.69695 24.4873 3.69695 22.0303 C3.69695 11.2393 15.695 2.68945 30.4602 2.68945 C45.2253 2.68945 57.2234 11.2227 57.2234 22.0303 C57.2007 24.5537 56.5203 27.0439 55.1821 29.4512 L55.1821 29.4512 Z" transform="translate(84.125, 44)"/>
 </g>
</svg>
